<?xml version="1.0" encoding="UTF-8" standalone="no"?>
<svg
   xmlns:dc="http://purl.org/dc/elements/1.1/"
   xmlns:cc="http://creativecommons.org/ns#"
   xmlns:rdf="http://www.w3.org/1999/02/22-rdf-syntax-ns#"
   xmlns:svg="http://www.w3.org/2000/svg"
   xmlns="http://www.w3.org/2000/svg"
   xmlns:sodipodi="http://sodipodi.sourceforge.net/DTD/sodipodi-0.dtd"
   xmlns:inkscape="http://www.inkscape.org/namespaces/inkscape"
   width="210mm"
   height="297mm"
   viewBox="0 0 210 297"
   version="1.1"
   id="svg8"
   sodipodi:docname="icon.svg"
   inkscape:version="1.0.2 (e86c870879, 2021-01-15)"
   inkscape:export-filename="/home/zlf/programs/OpenOpenings/img/icon.png"
   inkscape:export-xdpi="31.65"
   inkscape:export-ydpi="31.65">
  <defs
     id="defs2">
    <filter
       inkscape:collect="always"
       style="color-interpolation-filters:sRGB"
       id="filter5730"
       x="-0.060217718"
       width="1.1204354"
       y="-0.083154968"
       height="1.1663099">
      <feGaussianBlur
         inkscape:collect="always"
         stdDeviation="0.27224808"
         id="feGaussianBlur5732" />
    </filter>
  </defs>
  <sodipodi:namedview
     id="base"
     pagecolor="#ffffff"
     bordercolor="#666666"
     borderopacity="1.0"
     inkscape:pageopacity="0.0"
     inkscape:pageshadow="2"
     inkscape:zoom="1.4"
     inkscape:cx="264.85192"
     inkscape:cy="288.32836"
     inkscape:document-units="mm"
     inkscape:current-layer="layer2"
     inkscape:document-rotation="0"
     showgrid="false"
     inkscape:window-width="1366"
     inkscape:window-height="704"
     inkscape:window-x="0"
     inkscape:window-y="27"
     inkscape:window-maximized="1" />
  <metadata
     id="metadata5">
    <rdf:RDF>
      <cc:Work
         rdf:about="">
        <dc:format>image/svg+xml</dc:format>
        <dc:type
           rdf:resource="http://purl.org/dc/dcmitype/StillImage" />
      </cc:Work>
    </rdf:RDF>
  </metadata>
  <g
     inkscape:groupmode="layer"
     id="layer2"
     inkscape:label="square"
     style="display:inline">
    <rect
       style="fill:#666666;stroke:#666666;stroke-width:1"
       id="rect857"
       width="64"
       height="64"
       x="40.20528"
       y="44.789524" />
  </g>
  <g
     inkscape:label="draw"
     inkscape:groupmode="layer"
     id="layer1"
     style="display:inline">
    <path
       style="fill:none;stroke:#000000;stroke-width:0.712677px;stroke-linecap:butt;stroke-linejoin:miter;stroke-opacity:1"
       d="m 69.475544,62.894276 c -15.617504,0.04717 -28.840821,39.617344 -23.426375,40.738334 9.989144,2.06814 30.977059,1.51323 48.388119,0 10.030002,-0.8717 -8.146606,-40.789127 -24.961744,-40.738334 z"
       id="path912"
       sodipodi:nodetypes="ssss" />
    <ellipse
       style="fill:#f2f2f2;stroke:#000000;stroke-width:1.34679;stroke-miterlimit:4;stroke-dasharray:none"
       id="path916"
       ry="11.911952"
       rx="11.81662"
       cy="59.222618"
       cx="69.438301" />
    <path
       style="fill:none;stroke:#000000;stroke-width:0.712677px;stroke-linecap:butt;stroke-linejoin:miter;stroke-opacity:1"
       d="m 58.573024,56.393805 h 21.658312 v 4.480797 H 58.219341 Z"
       id="path998" />
  </g>
  <g
     inkscape:groupmode="layer"
     id="layer3"
     inkscape:label="color"
     style="display:inline">
    <path
       style="fill:#ff0000;stroke:#000000;stroke-width:0.240501;stroke-miterlimit:4;stroke-dasharray:none"
       d="m 58.551892,59.647344 0.15984,-1.785262 0.07993,-0.892631 h 10.398336 10.398421 v 1.785262 1.785263 H 69.030194 58.471998 Z"
       id="path1000" />
    <path
       style="fill:#999999;stroke:#000000;stroke-width:0.480998;stroke-miterlimit:4;stroke-dasharray:none"
       d="m 56.680749,104.31127 c -3.833843,-0.2108 -9.699123,-0.86521 -10.491816,-1.17064 -1.604346,-0.61808 -0.909629,-6.476187 1.62688,-13.718324 4.246752,-12.125155 10.848095,-21.66271 17.171521,-24.809228 2.833365,-1.409877 5.660253,-1.521921 8.784841,-0.348183 4.495078,1.688574 10.218917,6.895621 13.239726,12.044349 0.720996,1.228887 1.482386,2.292655 1.691949,2.363933 0.451092,0.153441 3.394246,5.264634 4.703014,8.167516 1.400349,3.106001 2.854371,7.69479 3.197671,10.091536 0.389738,2.721047 0.162313,4.353321 -0.749137,5.377541 l -0.687079,0.77205 -4.438819,0.34689 c -11.38533,0.88974 -26.699005,1.28668 -34.048751,0.88256 z"
       id="path1014" />
    <path
       style="fill:#999999;stroke:#000000;stroke-width:0.481;stroke-miterlimit:4;stroke-dasharray:none"
       d="m 67.608917,70.148611 c -3.971493,-0.661563 -7.845285,-4.26783 -8.799089,-8.191408 l -0.170483,-0.701351 h 10.84048 10.840439 l -0.166394,0.573834 c -0.09165,0.315605 -0.491887,1.288065 -0.889652,2.161016 -1.98743,4.361655 -6.889772,6.951744 -11.655234,6.157909 z"
       id="path1020" />
    <path
       style="fill:#999999;stroke:#000000;stroke-width:0.481;stroke-miterlimit:4;stroke-dasharray:none"
       d="m 59.224398,55.198705 c 0.885643,-2.358289 3.25056,-4.888685 5.618373,-6.011521 4.032982,-1.912468 9.05218,-1.012279 12.248391,2.196736 1.218949,1.223833 2.686852,3.547159 2.686852,4.252625 0,0.177062 -3.415608,0.263528 -10.408512,0.263528 H 58.961007 Z"
       id="path1022" />
    <path
       style="fill:#000000;stroke:#000000;stroke-width:0.0680951;stroke-miterlimit:4;stroke-dasharray:none"
       d="m 88.854712,78.458534 c -0.242833,-0.167571 -0.844542,-1.009293 -1.520171,-2.126531 -0.203744,-0.336914 -0.451382,-0.738936 -0.550311,-0.893378 -0.446498,-0.697062 0.03891,-0.08943 0.845356,1.058239 0.462309,0.657911 1.370101,2.019202 1.355574,2.032756 -0.0056,0.006 -0.06511,-0.02599 -0.130448,-0.07111 z"
       id="path1032" />
    <path
       style="fill:#000000;stroke:#000000;stroke-width:0.168729;stroke-miterlimit:4;stroke-dasharray:none"
       d=""
       id="path1034"
       transform="scale(0.26458333)" />
    <path
       style="fill:#000000;stroke:#000000;stroke-width:0.168729;stroke-miterlimit:4;stroke-dasharray:none"
       d=""
       id="path1036"
       transform="scale(0.26458333)" />
    <path
       style="fill:#000000;stroke:#000000;stroke-width:0.0120376;stroke-miterlimit:4;stroke-dasharray:none"
       d="m 86.466819,74.97948 c -0.186005,-0.280276 -0.379457,-0.559959 -0.586534,-0.848011 -0.05385,-0.07485 -0.09644,-0.137382 -0.09499,-0.138964 0.0056,-0.0065 0.864098,1.107055 0.864098,1.122032 0,0.002 -0.0056,8.07e-4 -0.0126,-0.0028 -0.01784,-0.0095 -0.04359,-0.0012 -0.05307,0.01667 -0.0078,0.01456 -0.01293,0.0078 -0.116912,-0.148834 z"
       id="path1038" />
    <path
       style="fill:#000000;stroke:#000000;stroke-width:0.0030094;stroke-miterlimit:4;stroke-dasharray:none"
       d="m 89.328471,79.008914 c -0.135844,-0.188325 -0.24309,-0.321192 -0.334358,-0.414236 -0.02899,-0.02944 -0.032,-0.03318 -0.02709,-0.03187 0.0033,8.09e-4 0.01115,10e-4 0.01684,10e-4 0.0089,-10e-6 0.01226,-8.1e-4 0.0184,-0.005 0.0056,-0.004 0.0078,-0.006 0.01193,-0.01588 0.0022,-0.006 0.0056,-0.01436 0.0056,-0.01811 l 8.03e-4,-0.007 0.01661,0.02589 c 0.179638,0.279621 0.317556,0.49642 0.316508,0.497471 -3.35e-4,3.35e-4 -0.01148,-0.01466 -0.02497,-0.03328 z"
       id="path1040" />
    <path
       style="fill:#000000;stroke:#000000;stroke-width:0.0481503;stroke-miterlimit:4;stroke-dasharray:none"
       d="m 79.117046,56.007465 c 0.636763,-0.06197 0.731499,-0.08312 0.831888,-0.1858 l 0.07314,-0.07477 0.04092,0.138702 0.04103,0.138697 -0.538102,-0.004 c -0.29596,-0.0025 -0.497975,-0.008 -0.448929,-0.01275 z"
       id="path1042" />
  </g>
  <g
     inkscape:groupmode="layer"
     id="layer4"
     inkscape:label="glow"
     style="display:inline;opacity:1;filter:url(#filter5730)" />
</svg>
